<svg width="314" height="82" viewBox="0 0 314 82" fill="none" xmlns="http://www.w3.org/2000/svg">
<path d="M102.72 40.4148C102.72 37.8705 103.306 35.5881 104.478 33.5676C105.676 31.5472 107.285 29.9757 109.305 28.8532C111.35 27.7058 113.583 27.1321 116.003 27.1321C118.771 27.1321 121.228 27.818 123.374 29.1899C125.544 30.5369 127.115 32.4576 128.088 34.952H122.962C122.288 33.5801 121.353 32.5574 120.156 31.8839C118.958 31.2104 117.574 30.8737 116.003 30.8737C114.281 30.8737 112.747 31.2603 111.4 32.0336C110.053 32.8068 108.993 33.9168 108.22 35.3636C107.472 36.8104 107.097 38.4941 107.097 40.4148C107.097 42.3355 107.472 44.0192 108.22 45.466C108.993 46.9127 110.053 48.0352 111.4 48.8334C112.747 49.6067 114.281 49.9933 116.003 49.9933C117.574 49.9933 118.958 49.6566 120.156 48.9831C121.353 48.3096 122.288 47.2869 122.962 45.915H128.088C127.115 48.4094 125.544 50.3301 123.374 51.677C121.228 53.024 118.771 53.6975 116.003 53.6975C113.558 53.6975 111.326 53.1363 109.305 52.0138C107.285 50.8664 105.676 49.2824 104.478 47.2619C103.306 45.2415 102.72 42.9591 102.72 40.4148ZM137.346 25.7851V53.473H133.081V25.7851H137.346ZM151.889 53.8098C149.943 53.8098 148.184 53.3732 146.613 52.5002C145.042 51.6022 143.807 50.355 142.909 48.7586C142.011 47.1372 141.562 45.2664 141.562 43.1462C141.562 41.0509 142.023 39.1925 142.946 37.5712C143.869 35.9498 145.129 34.7026 146.725 33.8295C148.322 32.9565 150.105 32.52 152.076 32.52C154.046 32.52 155.83 32.9565 157.426 33.8295C159.023 34.7026 160.282 35.9498 161.205 37.5712C162.128 39.1925 162.59 41.0509 162.59 43.1462C162.59 45.2415 162.116 47.0998 161.168 48.7212C160.22 50.3425 158.923 51.6022 157.277 52.5002C155.655 53.3732 153.859 53.8098 151.889 53.8098ZM151.889 50.1056C152.986 50.1056 154.009 49.8437 154.957 49.3198C155.93 48.796 156.715 48.0103 157.314 46.9626C157.913 45.915 158.212 44.6428 158.212 43.1462C158.212 41.6495 157.925 40.3898 157.351 39.3671C156.778 38.3195 156.017 37.5337 155.069 37.0099C154.121 36.4861 153.098 36.2242 152.001 36.2242C150.903 36.2242 149.881 36.4861 148.933 37.0099C148.01 37.5337 147.274 38.3195 146.725 39.3671C146.176 40.3898 145.902 41.6495 145.902 43.1462C145.902 45.3662 146.463 47.0873 147.586 48.3096C148.733 49.5069 150.168 50.1056 151.889 50.1056ZM185.477 32.8567V53.473H181.212V51.041C180.538 51.8891 179.653 52.5626 178.555 53.0614C177.482 53.5354 176.335 53.7724 175.113 53.7724C173.491 53.7724 172.032 53.4356 170.735 52.7621C169.463 52.0886 168.453 51.0909 167.704 49.7688C166.981 48.4468 166.619 46.8504 166.619 44.9796V32.8567H170.847V44.3435C170.847 46.1893 171.309 47.6112 172.232 48.6089C173.155 49.5817 174.414 50.0682 176.011 50.0682C177.607 50.0682 178.867 49.5817 179.79 48.6089C180.738 47.6112 181.212 46.1893 181.212 44.3435V32.8567H185.477ZM189.683 43.0713C189.683 41.001 190.107 39.1676 190.955 37.5712C191.828 35.9747 193.001 34.74 194.472 33.867C195.969 32.969 197.628 32.52 199.449 32.52C200.796 32.52 202.118 32.8193 203.415 33.418C204.737 33.9917 205.785 34.7649 206.558 35.7378V25.7851H210.861V53.473H206.558V50.3675C205.859 51.3652 204.887 52.1884 203.639 52.8369C202.417 53.4855 201.008 53.8098 199.411 53.8098C197.615 53.8098 195.969 53.3608 194.472 52.4628C193.001 51.5399 191.828 50.2677 190.955 48.6463C190.107 47 189.683 45.1417 189.683 43.0713ZM206.558 43.1462C206.558 41.7244 206.258 40.4896 205.66 39.442C205.086 38.3943 204.325 37.5961 203.377 37.0473C202.43 36.4986 201.407 36.2242 200.309 36.2242C199.212 36.2242 198.189 36.4986 197.241 37.0473C196.293 37.5712 195.52 38.3569 194.921 39.4045C194.348 40.4273 194.061 41.6495 194.061 43.0713C194.061 44.4931 194.348 45.7404 194.921 46.8129C195.52 47.8855 196.293 48.7087 197.241 49.2824C198.214 49.8312 199.237 50.1056 200.309 50.1056C201.407 50.1056 202.43 49.8312 203.377 49.2824C204.325 48.7336 205.086 47.9354 205.66 46.8878C206.258 45.8152 206.558 44.568 206.558 43.1462ZM238.875 27.4688L229.11 53.473H224.171L214.368 27.4688H218.933L226.64 49.0953L234.385 27.4688H238.875ZM241.021 43.0713C241.021 41.001 241.445 39.1676 242.293 37.5712C243.166 35.9747 244.338 34.74 245.81 33.867C247.307 32.969 248.953 32.52 250.749 32.52C252.37 32.52 253.78 32.8443 254.977 33.4928C256.199 34.1164 257.172 34.9021 257.895 35.85V32.8567H262.198V53.473H257.895V50.4049C257.172 51.3777 256.187 52.1884 254.939 52.8369C253.692 53.4855 252.27 53.8098 250.674 53.8098C248.903 53.8098 247.282 53.3608 245.81 52.4628C244.338 51.5399 243.166 50.2677 242.293 48.6463C241.445 47 241.021 45.1417 241.021 43.0713ZM257.895 43.1462C257.895 41.7244 257.596 40.4896 256.997 39.442C256.424 38.3943 255.663 37.5961 254.715 37.0473C253.767 36.4986 252.744 36.2242 251.647 36.2242C250.549 36.2242 249.527 36.4986 248.579 37.0473C247.631 37.5712 246.858 38.3569 246.259 39.4045C245.685 40.4273 245.398 41.6495 245.398 43.0713C245.398 44.4931 245.685 45.7404 246.259 46.8129C246.858 47.8855 247.631 48.7087 248.579 49.2824C249.552 49.8312 250.574 50.1056 251.647 50.1056C252.744 50.1056 253.767 49.8312 254.715 49.2824C255.663 48.7336 256.424 47.9354 256.997 46.8878C257.596 45.8152 257.895 44.568 257.895 43.1462ZM286.471 32.8567V53.473H282.206V51.041C281.532 51.8891 280.647 52.5626 279.549 53.0614C278.477 53.5354 277.329 53.7724 276.107 53.7724C274.486 53.7724 273.027 53.4356 271.729 52.7621C270.457 52.0886 269.447 51.0909 268.699 49.7688C267.975 48.4468 267.614 46.8504 267.614 44.9796V32.8567H271.842V44.3435C271.842 46.1893 272.303 47.6112 273.226 48.6089C274.149 49.5817 275.409 50.0682 277.005 50.0682C278.602 50.0682 279.861 49.5817 280.784 48.6089C281.732 47.6112 282.206 46.1893 282.206 44.3435V32.8567H286.471ZM296.365 25.7851V53.473H292.099V25.7851H296.365ZM306.941 36.3364V47.7484C306.941 48.5216 307.116 49.0829 307.465 49.4321C307.839 49.7564 308.463 49.9185 309.336 49.9185H311.955V53.473H308.588C306.667 53.473 305.195 53.024 304.172 52.126C303.15 51.2281 302.638 49.7688 302.638 47.7484V36.3364H300.206V32.8567H302.638V27.7307H306.941V32.8567H311.955V36.3364H306.941Z" fill="#FA7275"/>
<rect opacity="0.2" width="74.8323" height="74.8323" rx="37.4161" fill="#DF3538"/>
<rect x="32.7391" y="31.1802" width="49.8882" height="49.8882" rx="24.9441" fill="#FF585B" fill-opacity="0.83"/>
</svg>
